# xmcd CD database file
#
# Track frame offsets:
#	150
#	17085
#	28220
#	46545
#	60255
#	90540
#	106340
#	121590
#	136217
#	154102
#	175537
#	188825
#	204615
#	221167
#	235520
#	252282
#
# Disc length: 3735 seconds
#
# Revision: 0
# Processed by: cddbd v1.5.2PL0 Copyright (c) Steve Scherf et al.
# Submitted via: CDex 1.40Beta9
#
DISCID=c50e9510
DTITLE=Various Artist - Blues
DYEAR=1999
DGENRE=Blues
TTITLE0=B.B. King - Three O'Clock Blues
TTITLE1=Nina Simone - Backlash Blues
TTITLE2=Johnny Winter Feat. Dr John - You Lie Too Much
TTITLE3=Joe Williams - Me And The Blues
TTITLE4=Taj Mahal - Senor Blues
TTITLE5=The Subdudes - Fountain Flow
TTITLE6=Albert Collins - Don't Lose Your Cool
TTITLE7=Elmore James - Dust My Blues
TTITLE8=Taj Mahal Feat. Etta James - Mocking Bird
TTITLE9=Fabulous Thunderbirds Feat. Kim Wilson - Too Much of Everything
TTITLE10=The Duke Robillard Band - I Still Love You Baby
TTITLE11=Roy Rogers - Ever Since I lost You
TTITLE12=Etta James - Born Blue
TTITLE13=Bill Perry - Lost In the Blues
TTITLE14=Boneshakers - Cold Sweat
TTITLE15=Jimmy Witherspoon - Big Boss Man
EXTD=YEAR: 1999 ID3G: 0
EXTT0=
EXTT1=
EXTT2=
EXTT3=
EXTT4=
EXTT5=
EXTT6=
EXTT7=
EXTT8=
EXTT9=
EXTT10=
EXTT11=
EXTT12=
EXTT13=
EXTT14=
EXTT15=
PLAYORDER=
